<?xml version="1.0" encoding="utf-8"?>
<svg viewBox="0 0 128 128" xmlns="http://www.w3.org/2000/svg">
  <rect width="128" height="128" x="50%" y="50%" rx="15" ry="15" transform="translate(-64,-64)" fill="#EEEEEE"/>
  <path fill="#E44D26" d="M 27.854 113.101 L 19.811 22.89 L 108.189 22.89 L 100.138 113.087 L 63.946 123.12 Z"/>
  <path fill="#F16529" d="M 64 115.451 L 93.244 107.343 L 100.125 30.267 L 64 30.267 Z"/>
  <path fill="#EBEBEB" d="M 64 63.725 L 49.359 63.725 L 48.349 52.394 L 64 52.394 L 64 41.33 L 36.257 41.33 L 36.521 44.299 L 39.241 74.788 L 64 74.788 Z M 64 92.458 L 63.951 92.471 L 51.63 89.143 L 50.842 80.32 L 39.735 80.32 L 41.285 97.692 L 63.949 103.984 L 64 103.969 Z"/>
  <path d="M 27.912 4.88 L 33.534 4.88 L 33.534 10.436 L 38.678 10.436 L 38.678 4.88 L 44.301 4.88 L 44.301 21.702 L 38.678 21.702 L 38.678 16.069 L 33.535 16.069 L 33.535 21.702 L 27.912 21.702 L 27.912 4.88 Z M 51.694 10.459 L 46.744 10.459 L 46.744 4.88 L 62.269 4.88 L 62.269 10.459 L 57.317 10.459 L 57.317 21.702 L 51.694 21.702 L 51.694 10.459 Z M 64.733 4.88 L 70.595 4.88 L 74.202 10.791 L 77.805 4.88 L 83.67 4.88 L 83.67 21.702 L 78.069 21.702 L 78.069 13.364 L 74.202 19.345 L 74.104 19.345 L 70.234 13.364 L 70.234 21.702 L 64.732 21.702 L 64.732 4.88 Z M 86.469 4.88 L 92.093 4.88 L 92.093 16.142 L 100 16.142 L 100 21.703 L 86.469 21.703 L 86.469 4.88 Z"/>
  <path fill="#fff" d="M 63.962 63.725 L 63.962 74.788 L 77.586 74.788 L 76.302 89.137 L 63.962 92.468 L 63.962 103.978 L 86.644 97.692 L 86.81 95.822 L 89.41 66.695 L 89.68 63.725 L 86.698 63.725 Z M 63.962 41.33 L 63.962 52.394 L 90.687 52.394 L 90.908 49.907 L 91.413 44.299 L 91.678 41.33 Z"/>
</svg>