<?xml version="1.0" encoding="utf-8"?>
<svg viewBox="0 0 128 128" xmlns="http://www.w3.org/2000/svg">
  <rect width="128" height="128" rx="15%" fill="#eeeeee"/>
  <path fill="#eeeeee" d="M 27.689 86.912 C 23.011 86.914 19.211 83.108 19.21 78.431 L 19.208 52.467 C 19.206 47.794 23.006 43.988 27.679 43.987 C 29.95 43.986 32.077 44.867 33.679 46.469 C 35.283 48.07 36.165 50.201 36.167 52.465 L 36.164 78.43 C 36.175 80.678 35.284 82.838 33.688 84.422 C 32.102 86.021 29.941 86.919 27.689 86.912 M 27.682 46.265 C 24.26 46.264 21.484 49.046 21.484 52.467 L 21.488 78.429 C 21.487 81.854 24.263 84.633 27.688 84.635 C 31.115 84.636 33.892 81.856 33.888 78.43 L 33.888 52.463 C 33.885 49.039 31.107 46.264 27.682 46.265" style=""/>
  <path fill="#eeeeee" d="M 94.191 47.551 L 91.912 47.55 L 36.063 47.558 L 33.783 47.559 L 33.781 45.279 C 33.776 35.92 38.875 27.216 47.226 22.073 L 43.979 16.146 C 43.582 15.452 43.483 14.572 43.714 13.769 C 43.951 12.958 44.503 12.277 45.246 11.877 C 45.701 11.627 46.212 11.497 46.732 11.5 C 47.882 11.5 48.936 12.124 49.491 13.132 L 52.89 19.323 C 56.434 18.026 60.18 17.367 63.954 17.376 C 67.845 17.374 71.576 18.032 75.107 19.328 L 78.501 13.127 C 79.051 12.119 80.109 11.494 81.257 11.496 C 81.775 11.494 82.286 11.621 82.744 11.865 C 83.489 12.265 84.04 12.949 84.273 13.762 C 84.507 14.564 84.411 15.425 84.004 16.154 L 80.759 22.078 C 89.097 27.231 94.189 35.929 94.188 45.271 L 94.191 47.551 Z M 77.68 22.951 L 82.008 15.049 C 82.358 14.486 81.968 13.756 81.307 13.734 C 80.965 13.723 80.65 13.913 80.502 14.22 L 76.13 22.202 C 72.452 20.569 68.335 19.65 63.982 19.655 C 59.638 19.65 55.528 20.566 51.861 22.193 L 47.485 14.229 C 47.26 13.81 46.736 13.656 46.321 13.887 C 45.9 14.111 45.746 14.639 45.98 15.051 L 50.309 22.947 C 41.803 27.335 36.056 35.689 36.061 45.28 L 91.909 45.273 C 91.912 35.685 86.175 27.349 77.68 22.951 M 51.279 35.162 C 49.477 35.161 48.351 33.21 49.253 31.648 C 49.672 30.924 50.445 30.478 51.282 30.479 C 52.575 30.481 53.624 31.529 53.626 32.822 C 53.625 34.116 52.574 35.164 51.279 35.162 M 76.71 35.157 C 75.416 35.16 74.367 34.111 74.369 32.817 C 74.373 31.524 75.419 30.477 76.711 30.47 C 78.002 30.481 79.043 31.527 79.048 32.818 C 79.049 34.109 78.002 35.156 76.71 35.157 M 53.62 116.504 C 48.947 116.503 45.143 112.702 45.143 108.025 L 45.141 96.565 L 42.913 96.568 C 40.551 96.576 38.286 95.639 36.621 93.965 C 34.945 92.3 34.007 90.033 34.017 87.67 L 34.009 47.441 L 34.009 45.159 L 36.288 45.159 L 91.719 45.151 L 94 45.149 L 94 47.429 L 94.005 87.664 C 94.005 92.57 90.014 96.563 85.109 96.562 L 82.867 96.564 L 82.87 108.019 C 82.87 112.694 79.067 116.499 74.395 116.499 C 72.145 116.51 69.984 115.615 68.399 114.018 C 66.801 112.434 65.904 110.274 65.91 108.025 L 65.91 96.564 L 62.1 96.564 L 62.1 108.022 C 62.098 112.697 58.296 116.505 53.62 116.504" style=""/>
  <path fill="#eeeeee" d="M 36.3 87.67 C 36.292 91.327 39.256 94.294 42.914 94.289 L 47.419 94.289 L 47.423 108.027 C 47.423 111.448 50.202 114.228 53.619 114.228 C 57.046 114.227 59.82 111.448 59.817 108.022 L 59.818 94.288 L 68.188 94.286 L 68.187 108.023 C 68.191 111.445 70.974 114.228 74.39 114.221 C 77.816 114.223 80.593 111.44 80.593 108.018 L 80.588 94.284 L 85.11 94.283 C 88.758 94.284 91.726 91.32 91.726 87.664 L 91.718 47.427 L 36.289 47.438 L 36.3 87.67 Z M 100.318 86.9 C 95.642 86.901 91.838 83.101 91.839 78.424 L 91.832 52.46 C 91.834 47.783 95.632 43.979 100.306 43.979 C 104.985 43.978 108.791 47.781 108.791 52.457 L 108.793 78.419 C 108.794 83.093 104.993 86.901 100.318 86.9 M 100.309 46.258 C 96.887 46.255 94.112 49.034 94.112 52.46 L 94.115 78.423 C 94.113 81.848 96.892 84.625 100.316 84.622 C 103.742 84.622 106.518 81.846 106.515 78.42 L 106.508 52.458 C 106.511 49.034 103.734 46.257 100.309 46.258" style=""/>
  <path fill="#3DDC84" d="M 27.682 46.265 C 24.26 46.264 21.484 49.046 21.484 52.467 L 21.488 78.429 C 21.485 81.854 24.264 84.633 27.689 84.631 C 31.115 84.634 33.894 81.855 33.888 78.43 L 33.888 52.463 C 33.885 49.039 31.107 46.264 27.682 46.265 M 77.68 22.951 L 82.008 15.049 C 82.238 14.632 82.086 14.107 81.669 13.876 C 81.252 13.651 80.73 13.805 80.502 14.22 L 76.131 22.205 C 72.453 20.568 68.337 19.65 63.982 19.655 C 59.638 19.65 55.524 20.566 51.861 22.193 L 47.485 14.229 C 47.26 13.811 46.737 13.656 46.322 13.886 C 45.901 14.111 45.748 14.636 45.98 15.051 L 50.309 22.948 C 41.803 27.335 36.056 35.689 36.061 45.28 L 91.909 45.273 C 91.912 35.685 86.175 27.349 77.68 22.951 M 51.279 35.162 C 49.477 35.161 48.351 33.21 49.253 31.648 C 49.672 30.924 50.445 30.478 51.282 30.479 C 52.575 30.481 53.624 31.529 53.626 32.822 C 53.625 34.116 52.574 35.164 51.279 35.162 M 76.71 35.157 C 75.417 35.158 74.368 34.11 74.369 32.817 C 74.376 31.525 75.42 30.48 76.711 30.47 C 78.002 30.481 79.043 31.527 79.048 32.818 C 79.05 34.11 78.003 35.158 76.71 35.157 M 36.289 47.438 L 36.299 87.674 C 36.294 91.328 39.259 94.293 42.914 94.288 L 47.419 94.289 L 47.423 108.028 C 47.423 111.448 50.203 114.229 53.619 114.229 C 57.046 114.229 59.821 111.447 59.822 108.024 L 59.818 94.289 L 68.188 94.287 L 68.192 108.024 C 68.192 111.442 70.974 114.228 74.39 114.222 C 77.816 114.224 80.593 111.441 80.593 108.019 L 80.588 94.285 L 85.109 94.282 C 88.764 94.283 91.726 91.319 91.727 87.664 L 91.721 47.428 L 36.289 47.438 Z M 106.511 52.457 C 106.512 49.033 103.734 46.257 100.309 46.258 C 96.887 46.255 94.112 49.034 94.112 52.46 L 94.117 78.424 C 94.115 81.848 96.892 84.625 100.316 84.622 C 103.742 84.623 106.518 81.846 106.515 78.42 L 106.511 52.457 Z" style=""/>
</svg>