<?xml version="1.0" encoding="utf-8"?>
<svg viewBox="0 0 128 128" xmlns="http://www.w3.org/2000/svg">
  <rect width="128" height="128" rx="15%" fill="#eee" />

  <path fill="#131313" d="M 89.233 8.977 L 81.849 8.977 L 89.528 17.31 L 89.528 21.277 L 73.712 21.277 L 73.712 16.632 L 81.39 16.632 L 73.712 8.299 L 73.712 4.328 L 89.233 4.328 L 89.233 8.977 Z M 70.576 8.977 L 63.192 8.977 L 70.871 17.31 L 70.871 21.277 L 55.054 21.277 L 55.054 16.632 L 62.733 16.632 L 55.054 8.299 L 55.054 4.328 L 70.576 4.328 L 70.576 8.977 Z M 52.102 9.167 L 44.134 9.167 L 44.134 16.438 L 52.102 16.438 L 52.102 21.277 L 38.47 21.277 L 38.47 4.328 L 52.102 4.328 L 52.102 9.167 Z"/>
  <path fill="#1572B6" d="M 27.613 113.586 L 19.516 22.773 L 108.483 22.773 L 100.379 113.571 L 63.945 123.673 L 27.613 113.586 Z"/>
  <path fill="#33A9DC" d="M 64.001 115.952 L 93.44 107.79 L 100.366 30.199 L 64.001 30.199 L 64.001 115.952 Z"/>
  <path fill="#fff" d="M 64 63.1 L 78.738 63.1 L 79.757 51.695 L 64 51.695 L 64 40.557 L 91.929 40.557 L 91.662 43.545 L 88.925 74.237 L 64 74.237 L 64 63.1 Z"/>
  <path fill="#EBEBEB" d="M 64.067 92.026 L 64.018 92.04 L 51.614 88.69 L 50.82 79.807 L 39.641 79.807 L 41.202 97.295 L 64.016 103.628 L 64.068 103.613 L 64.068 92.026 Z"/>
  <path fill="#fff" d="M 77.792 73.766 L 76.45 88.682 L 64.028 92.035 L 64.028 103.623 L 86.861 97.295 L 87.029 95.413 L 88.967 73.766 L 77.792 73.766 Z"/>
  <path fill="#EBEBEB" d="M 64.039 40.557 L 64.039 51.694 L 37.136 51.694 L 36.912 49.191 L 36.405 43.545 L 36.138 40.557 L 64.039 40.557 Z M 64 63.101 L 64 74.239 L 51.753 74.239 L 51.53 71.736 L 51.022 66.089 L 50.755 63.101 L 64 63.101 Z"/>
</svg>