<?xml version="1.0" encoding="utf-8"?>
<svg viewBox="0 0 128 128" xmlns="http://www.w3.org/2000/svg">
  <rect width="128" height="128" rx="15%" fill="#eeeeee"/>
  <path fill="#fff" d="M 48.894 17.486 C 13.089 29.908 4.157 76.43 32.817 101.228 C 38.437 106.091 45.085 109.617 52.263 111.545 C 60.509 113.672 69.148 113.766 77.438 111.817 C 84.948 110.131 91.892 106.522 97.588 101.345 C 103.517 95.794 107.821 88.73 110.036 80.916 C 112.444 72.417 112.872 63.48 111.289 54.79 L 64.983 54.79 L 64.983 73.999 L 91.8 73.999 C 90.717 80.189 87.161 85.672 81.951 89.186 C 78.677 91.352 74.985 92.81 71.113 93.465 C 67.231 94.186 63.249 94.186 59.365 93.465 C 55.43 92.652 51.707 91.028 48.435 88.696 C 43.177 84.973 39.229 79.686 37.154 73.587 C 35.045 67.374 35.045 60.638 37.154 54.425 C 38.631 50.07 41.072 46.105 44.296 42.825 C 51.817 35.033 63.062 32.097 73.432 35.217 C 77.406 36.435 81.04 38.567 84.043 41.441 C 87.067 38.432 90.086 35.416 93.099 32.392 C 94.655 30.766 96.351 29.218 97.884 27.553 C 93.298 23.286 87.915 19.966 82.044 17.782 C 71.352 13.9 59.653 13.795 48.894 17.486 Z" style=""/>
  <path fill="#e33629" d="M 48.894 17.486 C 59.652 13.793 71.351 13.894 82.044 17.774 C 87.916 19.973 93.297 23.31 97.876 27.592 C 96.32 29.257 94.678 30.813 93.092 32.432 C 90.073 35.445 87.056 38.448 84.043 41.441 C 81.04 38.567 77.406 36.435 73.432 35.217 C 63.064 32.087 51.818 35.011 44.289 42.794 C 41.064 46.074 38.623 50.039 37.147 54.394 L 21.018 41.907 C 26.791 30.459 36.786 21.703 48.894 17.486 Z" style=""/>
  <path fill="#f8bd00" d="M 16.74 54.277 C 17.606 49.981 19.045 45.82 21.018 41.907 L 37.147 54.425 C 35.037 60.638 35.037 67.374 37.147 73.587 C 31.773 77.736 26.398 81.906 21.018 86.097 C 16.08 76.266 14.573 65.064 16.74 54.277 Z" style=""/>
  <path fill="#587dbd" d="M 64.983 54.783 L 111.289 54.783 C 112.872 63.472 112.444 72.409 110.036 80.908 C 107.821 88.723 103.517 95.786 97.588 101.337 C 92.383 97.277 87.155 93.247 81.951 89.186 C 87.164 85.668 90.721 80.18 91.8 73.983 L 64.983 73.983 C 64.975 67.588 64.983 61.185 64.983 54.783 Z" style=""/>
  <path fill="#319f43" d="M 21.011 86.097 C 26.389 81.948 31.765 77.778 37.139 73.587 C 39.217 79.688 43.171 84.976 48.435 88.696 C 51.717 91.017 55.449 92.628 59.389 93.426 C 63.272 94.148 67.254 94.148 71.137 93.426 C 75.008 92.772 78.7 91.314 81.974 89.146 C 87.179 93.208 92.407 97.237 97.612 101.299 C 91.916 106.478 84.973 110.089 77.461 111.778 C 69.172 113.727 60.532 113.634 52.286 111.506 C 45.764 109.765 39.673 106.695 34.392 102.489 C 28.804 98.052 24.24 92.461 21.011 86.097 Z" style=""/>
</svg>