<?xml version="1.0" encoding="utf-8"?>
<svg viewBox="0 0 128 128" xmlns="http://www.w3.org/2000/svg">
  <rect width="128" height="128" rx="15%" fill="#333"/>
  <path fill="#0074BD" d="M 50.985 91.105 C 50.985 91.105 47.198 93.309 53.684 94.052 C 61.542 94.95 65.557 94.821 74.215 93.185 C 74.215 93.185 76.495 94.611 79.674 95.847 C 60.26 104.164 35.738 95.365 50.985 91.105 Z M 48.611 80.25 C 48.611 80.25 44.363 83.395 50.854 84.067 C 59.248 84.934 65.876 85.004 77.35 82.796 C 77.35 82.796 78.933 84.405 81.427 85.283 C 57.959 92.147 31.82 85.823 48.611 80.25 Z" style=""/>
  <path fill="#EA2D2E" d="M 68.609 61.833 C 73.395 67.342 67.354 72.295 67.354 72.295 C 67.354 72.295 79.499 66.026 73.922 58.173 C 68.712 50.853 64.718 47.217 86.343 34.675 C 86.343 34.676 52.398 43.151 68.609 61.833 Z" style=""/>
  <path fill="#0074BD" d="M 94.284 99.136 C 94.284 99.136 97.088 101.447 91.196 103.234 C 79.993 106.628 44.56 107.651 34.719 103.37 C 31.183 101.83 37.817 99.696 39.903 99.245 C 42.079 98.774 43.322 98.86 43.322 98.86 C 39.387 96.09 17.891 104.302 32.404 106.657 C 71.982 113.072 104.548 103.768 94.284 99.136 Z M 52.808 69.001 C 52.808 69.001 34.787 73.282 46.427 74.838 C 51.343 75.495 61.137 75.345 70.267 74.579 C 77.727 73.952 85.212 72.613 85.212 72.613 C 85.212 72.613 82.584 73.741 80.681 75.039 C 62.377 79.854 27.025 77.611 37.203 72.689 C 45.808 68.527 52.808 69.001 52.808 69.001 Z M 85.138 87.071 C 103.743 77.405 95.14 68.116 89.135 69.368 C 87.667 69.673 87.008 69.94 87.008 69.94 C 87.008 69.94 87.555 69.082 88.597 68.714 C 100.476 64.539 109.609 81.029 84.766 87.561 C 84.766 87.559 85.051 87.301 85.138 87.071 Z" style=""/>
  <path fill="#EA2D2E" d="M 73.922 14.42 C 73.922 14.42 84.224 24.728 64.149 40.574 C 48.05 53.289 60.478 60.537 64.143 68.822 C 54.745 60.343 47.851 52.878 52.475 45.931 C 59.266 35.736 78.078 30.791 73.922 14.42 Z" style=""/>
  <path fill="#0074BD" d="M 54.637 113.269 C 72.492 114.411 99.917 112.634 100.566 104.185 C 100.566 104.185 99.318 107.388 85.809 109.929 C 70.568 112.798 51.766 112.464 40.618 110.623 C 40.618 110.624 42.902 112.515 54.637 113.269 Z" style=""/>
</svg>