<?xml version="1.0" encoding="utf-8"?>
<svg viewBox="0 0 128 128" xmlns="http://www.w3.org/2000/svg">
  <rect width="128" height="128" rx="15%" fill="#F0DB4F"/>
  <path fill="#F0DB4F" d="M 7.035 7.035 L 120.964 7.035 L 120.964 120.965 L 7.035 120.965 Z" style=""/>
  <path fill="#323330" d="M 111.64 93.792 C 110.806 88.595 107.416 84.229 97.377 80.158 C 93.89 78.556 90.002 77.408 88.843 74.765 C 88.432 73.227 88.377 72.361 88.638 71.43 C 89.385 68.408 92.991 67.466 95.85 68.333 C 97.691 68.95 99.434 70.368 100.485 72.632 C 105.401 69.448 105.391 69.469 108.824 67.281 C 107.567 65.333 106.897 64.434 106.074 63.6 C 103.117 60.297 99.088 58.596 92.645 58.727 L 89.288 59.161 C 86.072 59.973 83.007 61.662 81.209 63.925 C 75.816 70.044 77.354 80.754 83.917 85.162 C 90.382 90.015 99.88 91.119 101.093 95.656 C 102.273 101.211 97.01 103.01 91.779 102.371 C 87.924 101.569 85.78 99.61 83.462 96.047 C 79.195 98.516 79.195 98.516 74.809 101.039 C 75.849 103.313 76.942 104.342 78.686 106.313 C 86.938 114.684 107.59 114.272 111.294 101.602 C 111.444 101.167 112.442 98.265 111.64 93.792 Z M 68.97 59.397 L 58.314 59.397 L 58.27 86.948 C 58.27 92.807 58.574 98.178 57.621 99.824 C 56.062 103.063 52.022 102.661 50.181 102.033 C 48.307 101.112 47.354 99.803 46.25 97.952 C 45.947 97.42 45.719 97.009 45.643 96.977 L 36.979 102.283 C 38.42 105.24 40.542 107.806 43.26 109.473 C 47.321 111.911 52.779 112.658 58.487 111.347 C 62.202 110.265 65.407 108.023 67.086 104.612 C 69.512 100.138 68.991 94.724 68.97 88.736 C 69.024 78.966 68.97 69.198 68.97 59.397 Z" style=""/>
</svg>