<?xml version="1.0" encoding="utf-8"?>
<svg viewBox="0 0 128 128" xmlns="http://www.w3.org/2000/svg">
  <rect width="128" height="128" rx="15%" fill="#eeeeee"/>
  <path style="line-height: normal; font-variant: normal; font-feature-settings: normal; font-variation-settings: normal; text-indent: 0px; text-align: start; text-decoration-line: none; text-decoration-style: solid; text-decoration-color: rgb(0, 0, 0); text-transform: none; text-orientation: mixed; white-space: normal; shape-margin: 0px; inline-size: 0px; isolation: auto; mix-blend-mode: normal;" d="M 19.3 29.949 C 14.289 29.949 10.182 34.129 10.182 39.122 L 10.182 88.88 C 10.182 93.873 14.289 98.053 19.3 98.053 L 108.699 98.053 C 113.71 98.053 117.817 93.873 117.817 88.88 L 117.817 39.122 C 117.817 34.13 113.709 29.95 108.699 29.95 L 21.832 29.95 L 21.83 29.948 L 19.3 29.948 Z M 19.294 38.144 L 108.699 38.144 C 109.236 38.144 109.623 38.508 109.623 39.123 L 109.623 88.88 C 109.623 89.496 109.234 89.859 108.699 89.859 L 19.3 89.859 C 18.765 89.859 18.376 89.496 18.376 88.88 L 18.376 39.122 C 18.376 38.508 18.763 38.147 19.294 38.144 Z" color="#000" font-weight="400" font-family="sans-serif" overflow="visible"/>
  <path d="M 26.833 81.262 L 26.833 46.74 L 36.879 46.74 L 46.925 59.432 L 56.966 46.74 L 67.01 46.74 L 67.01 81.262 L 56.966 81.262 L 56.966 61.462 L 46.924 74.155 L 36.878 61.462 L 36.878 81.262 L 26.834 81.262 Z M 89.612 81.262 L 74.545 64.509 L 84.59 64.509 L 84.59 46.74 L 94.636 46.74 L 94.636 64.508 L 104.682 64.508 Z M 89.612 81.262" style=""/>
</svg>