<?xml version="1.0" encoding="utf-8"?>
<svg viewBox="0 0 128 128" xmlns="http://www.w3.org/2000/svg">
  <rect width="128" height="128" rx="15%" fill="#eeeeee"/>
  <path fill="#00618A" d="M 11.172 97.874 L 14.586 97.874 L 14.586 84.392 L 19.871 96.146 C 20.495 97.569 21.348 98.072 23.023 98.072 C 24.698 98.072 25.519 97.569 26.142 96.146 L 31.428 84.392 L 31.428 97.874 L 34.841 97.874 L 34.841 84.414 C 34.841 83.101 34.317 82.465 33.233 82.139 C 30.639 81.329 28.899 82.029 28.111 83.78 L 22.924 95.38 L 17.902 83.78 C 17.146 82.029 15.374 81.329 12.78 82.138 C 11.696 82.465 11.171 83.1 11.171 84.414 L 11.171 97.874 Z M 37.682 86.9 L 41.094 86.9 L 41.094 94.327 C 41.064 94.73 41.225 95.678 43.094 95.708 C 44.048 95.723 50.459 95.708 50.519 95.708 L 50.519 86.863 L 53.941 86.863 C 53.956 86.863 53.937 98.925 53.937 98.975 C 53.955 101.95 50.246 102.596 48.536 102.646 L 37.755 102.646 L 37.755 100.349 C 37.774 100.349 48.528 100.351 48.555 100.348 C 50.753 100.116 50.493 99.024 50.492 98.657 L 50.492 97.761 L 43.236 97.761 C 39.861 97.73 37.71 96.256 37.682 94.561 C 37.681 94.406 37.756 86.974 37.682 86.9 Z" style=""/>
  <path fill="#E48E00" d="M 56.572 97.874 L 66.389 97.874 C 67.539 97.874 68.656 97.635 69.542 97.219 C 71.019 96.54 71.741 95.622 71.741 94.417 L 71.741 91.922 C 71.741 90.936 70.92 90.017 69.312 89.405 C 68.458 89.077 67.407 88.903 66.389 88.903 L 62.252 88.903 C 60.873 88.903 60.216 88.487 60.052 87.568 C 60.021 87.458 60.021 87.37 60.021 87.261 L 60.021 85.707 C 60.021 85.62 60.021 85.532 60.052 85.423 C 60.216 84.722 60.577 84.526 61.793 84.415 L 62.121 84.394 L 71.872 84.394 L 71.872 82.119 L 62.286 82.119 C 60.907 82.119 60.185 82.205 59.529 82.403 C 57.493 83.038 56.605 84.044 56.605 85.795 L 56.605 87.786 C 56.605 89.318 58.346 90.632 61.268 90.939 C 61.596 90.96 61.924 90.983 62.253 90.983 L 65.799 90.983 C 65.93 90.983 66.062 90.983 66.16 91.003 C 67.244 91.09 67.703 91.289 68.032 91.682 C 68.202 91.839 68.298 92.062 68.294 92.294 L 68.294 94.286 C 68.294 94.527 68.13 94.833 67.802 95.095 C 67.507 95.358 67.014 95.533 66.357 95.578 L 65.996 95.599 L 56.572 95.599 L 56.572 97.874 Z M 93.041 93.914 C 93.041 96.255 94.781 97.568 98.294 97.832 C 98.622 97.853 98.951 97.874 99.278 97.874 L 108.176 97.874 L 108.176 95.599 L 99.214 95.599 C 97.211 95.599 96.457 95.095 96.457 93.892 L 96.457 82.116 L 93.042 82.116 L 93.042 93.914 Z M 73.92 94.032 L 73.92 85.917 C 73.92 83.855 75.367 82.604 78.23 82.21 C 78.535 82.166 78.843 82.144 79.151 82.144 L 85.633 82.144 C 85.961 82.144 86.257 82.166 86.586 82.21 C 89.448 82.604 90.896 83.854 90.896 85.917 L 90.896 94.032 C 90.896 95.706 90.281 96.6 88.865 97.183 L 92.229 100.219 L 88.263 100.219 L 85.542 97.763 L 82.804 97.936 L 79.151 97.936 C 78.472 97.932 77.798 97.836 77.144 97.652 C 74.973 97.059 73.92 95.918 73.92 94.032 Z M 77.605 93.834 C 77.605 93.945 77.637 94.055 77.67 94.186 C 77.868 95.13 78.757 95.656 80.105 95.656 L 83.206 95.656 L 80.357 93.084 L 84.323 93.084 L 86.806 95.327 C 87.266 95.082 87.567 94.71 87.672 94.231 C 87.704 94.121 87.704 94.012 87.704 93.901 L 87.704 86.116 C 87.704 86.028 87.704 85.918 87.672 85.809 C 87.474 84.931 86.586 84.427 85.27 84.427 L 80.104 84.427 C 78.592 84.427 77.605 85.085 77.605 86.116 L 77.605 93.834 Z" style=""/>
  <path fill="#00618A" d="M 110.914 75.379 C 106.835 75.268 103.719 75.648 101.055 76.772 C 100.297 77.091 99.089 77.098 98.967 78.046 C 99.383 78.484 99.447 79.136 99.778 79.671 C 100.414 80.7 101.488 82.08 102.447 82.802 C 103.492 83.592 104.57 84.438 105.694 85.123 C 107.69 86.342 109.919 87.036 111.842 88.254 C 112.973 88.974 114.098 89.879 115.206 90.691 C 115.753 91.089 116.118 91.715 116.83 91.965 L 116.83 91.851 C 116.457 91.376 116.361 90.723 116.017 90.225 L 114.508 88.718 C 113.033 86.76 111.163 85.043 109.173 83.615 C 107.586 82.476 104.035 80.937 103.373 79.09 L 103.257 78.975 C 104.381 78.847 105.7 78.441 106.737 78.164 C 108.481 77.696 110.039 77.815 111.841 77.351 L 114.276 76.653 L 114.276 76.191 C 113.367 75.259 112.716 74.021 111.724 73.176 C 109.129 70.964 106.293 68.754 103.373 66.911 C 101.755 65.89 99.754 65.227 98.037 64.359 C 97.463 64.067 96.448 63.917 96.065 63.431 C 95.161 62.283 94.673 60.826 93.976 59.488 C 92.488 56.595 91.096 53.655 89.802 50.672 C 88.922 48.661 88.346 46.679 87.25 44.874 C 81.984 36.215 76.314 30.988 67.533 25.852 C 65.663 24.758 63.414 24.329 61.038 23.765 L 57.21 23.533 C 56.433 23.207 55.622 22.255 54.889 21.793 C 51.979 19.955 44.517 15.957 42.363 21.214 C 41.003 24.531 44.398 27.769 45.61 29.45 C 46.462 30.629 47.553 31.95 48.162 33.277 C 48.563 34.149 48.631 35.023 48.975 35.945 C 49.816 38.217 50.551 40.689 51.642 42.787 C 52.192 43.85 52.802 44.969 53.497 45.918 C 53.923 46.501 54.657 46.758 54.772 47.658 C 54.057 48.66 54.015 50.218 53.613 51.485 C 51.8 57.201 52.483 64.306 55.12 68.536 C 55.931 69.837 57.836 72.622 60.457 71.552 C 62.748 70.619 62.238 67.725 62.894 65.173 C 63.042 64.596 62.951 64.168 63.241 63.782 L 63.241 63.897 L 65.329 68.073 C 66.875 70.562 69.616 73.161 71.94 74.916 C 73.145 75.826 74.095 77.401 75.652 77.933 L 75.652 77.814 L 75.537 77.814 C 75.233 77.345 74.763 77.151 74.376 76.772 C 73.469 75.881 72.459 74.776 71.709 73.755 C 69.596 70.887 67.728 67.745 66.025 64.476 C 65.212 62.916 64.507 61.194 63.822 59.604 C 63.557 58.993 63.562 58.065 63.012 57.75 C 62.259 58.912 61.156 59.855 60.575 61.229 C 59.647 63.426 59.528 66.105 59.183 68.885 L 58.951 68.998 C 57.335 68.609 56.767 66.945 56.166 65.52 C 54.648 61.913 54.365 56.103 55.702 51.95 C 56.048 50.875 57.61 47.491 56.978 46.497 C 56.675 45.507 55.678 44.935 55.123 44.176 C 54.393 43.16 53.77 42.071 53.266 40.928 C 52.024 38.116 51.443 34.958 50.136 32.114 C 49.509 30.753 48.453 29.379 47.585 28.17 C 46.623 26.831 45.547 25.846 44.801 24.227 C 44.535 23.653 44.175 22.73 44.566 22.139 C 44.691 21.74 44.872 21.574 45.265 21.442 C 45.937 20.924 47.811 21.615 48.512 21.905 C 50.372 22.68 51.924 23.415 53.501 24.458 C 54.257 24.961 55.021 25.929 55.937 26.198 L 56.98 26.198 C 58.613 26.572 60.442 26.312 61.968 26.776 C 64.665 27.596 67.082 28.87 69.275 30.257 C 75.96 34.478 81.424 40.487 85.165 47.655 C 85.767 48.81 86.028 49.91 86.556 51.134 C 87.626 53.603 88.972 56.144 90.035 58.557 C 91.096 60.967 92.131 63.398 93.632 65.401 C 94.42 66.455 97.466 67.02 98.851 67.605 C 99.822 68.014 101.412 68.444 102.33 68.996 C 104.086 70.055 105.789 71.316 107.434 72.476 C 108.256 73.061 110.786 74.332 110.914 75.379 Z M 59.067 31.19 C 58.362 31.178 57.662 31.256 56.979 31.422 L 56.979 31.536 L 57.094 31.536 C 57.5 32.372 58.216 32.909 58.717 33.626 L 59.88 36.062 L 59.994 35.947 C 60.713 35.441 61.041 34.633 61.038 33.395 C 60.749 33.091 60.707 32.712 60.458 32.351 C 60.127 31.866 59.486 31.595 59.067 31.19 Z" style=""/>
</svg>