<?xml version="1.0" encoding="utf-8"?>
<svg viewBox="0 0 128 128" xmlns="http://www.w3.org/2000/svg">
  <rect width="128" height="128" rx="15%" fill="#eeeeee"/>
  <path fill="#00618A" d="M 103.21 89.036 C 98.128 88.897 94.247 89.371 90.928 90.769 C 89.986 91.167 88.481 91.178 88.327 92.359 C 88.845 92.902 88.926 93.714 89.338 94.382 C 90.13 95.663 91.468 97.382 92.661 98.283 C 93.966 99.268 95.31 100.32 96.708 101.172 C 99.195 102.688 101.971 103.554 104.365 105.073 C 105.777 105.969 107.178 107.097 108.555 108.107 C 109.236 108.607 109.693 109.384 110.578 109.697 L 110.578 109.553 C 110.113 108.961 109.993 108.148 109.566 107.53 L 107.688 105.651 C 105.851 103.213 103.519 101.071 101.041 99.294 C 99.064 97.875 94.641 95.958 93.817 93.659 L 93.673 93.515 C 95.074 93.356 96.714 92.85 98.008 92.502 C 100.18 91.92 102.122 92.071 104.365 91.491 L 107.399 90.624 L 107.399 90.047 C 106.265 88.883 105.457 87.343 104.221 86.29 C 100.985 83.535 97.454 80.783 93.818 78.487 C 91.801 77.215 89.309 76.388 87.171 75.309 C 86.452 74.945 85.189 74.757 84.714 74.152 C 83.591 72.722 82.98 70.907 82.114 69.24 C 80.301 65.747 78.52 61.933 76.913 58.258 C 75.817 55.752 75.101 53.282 73.734 51.033 C 67.173 40.246 60.111 33.736 49.171 27.337 C 46.843 25.976 44.04 25.439 41.078 24.735 C 39.49 24.64 37.9 24.543 36.311 24.446 C 35.34 24.042 34.332 22.855 33.421 22.278 C 29.797 19.989 20.501 15.009 17.817 21.556 C 16.122 25.689 20.351 29.721 21.862 31.816 C 22.924 33.283 24.283 34.931 25.041 36.583 C 25.54 37.669 25.626 38.759 26.053 39.907 C 27.103 42.737 28.017 45.816 29.376 48.431 C 30.062 49.755 30.819 51.149 31.688 52.332 C 32.22 53.059 33.133 53.379 33.276 54.5 C 32.385 55.748 32.334 57.687 31.832 59.269 C 29.574 66.389 30.426 75.239 33.711 80.509 C 34.718 82.128 37.093 85.597 40.357 84.265 C 43.213 83.103 42.575 79.498 43.392 76.318 C 43.576 75.598 43.463 75.068 43.825 74.585 L 43.825 74.729 L 46.426 79.931 C 48.352 83.031 51.767 86.271 54.662 88.457 C 56.163 89.591 57.345 91.55 59.286 92.213 L 59.286 92.068 L 59.142 92.068 C 58.766 91.483 58.177 91.24 57.697 90.769 C 56.566 89.66 55.309 88.282 54.374 87.012 C 51.741 83.438 49.414 79.525 47.294 75.453 C 46.281 73.508 45.401 71.363 44.548 69.384 C 44.219 68.621 44.223 67.467 43.538 67.072 C 42.602 68.522 41.226 69.695 40.503 71.407 C 39.347 74.144 39.198 77.482 38.769 80.944 C 38.516 81.034 38.629 80.972 38.48 81.087 C 36.467 80.602 35.761 78.531 35.012 76.753 C 33.121 72.258 32.769 65.022 34.434 59.848 C 34.865 58.508 36.811 54.293 36.023 53.056 C 35.647 51.822 34.406 51.108 33.712 50.165 C 32.852 49 31.994 47.466 31.398 46.119 C 29.851 42.616 29.128 38.682 27.498 35.139 C 26.718 33.445 25.401 31.731 24.319 30.226 C 23.122 28.558 21.78 27.329 20.851 25.313 C 20.521 24.596 20.073 23.448 20.562 22.712 C 20.717 22.215 20.938 22.007 21.429 21.845 C 22.267 21.199 24.601 22.06 25.474 22.422 C 27.791 23.385 29.725 24.301 31.688 25.602 C 32.629 26.227 33.583 27.435 34.722 27.769 L 36.022 27.769 C 38.056 28.237 40.335 27.914 42.236 28.491 C 45.595 29.512 48.605 31.1 51.338 32.826 C 59.666 38.085 66.476 45.571 71.134 54.5 C 71.883 55.939 72.207 57.31 72.867 58.835 C 74.199 61.911 75.876 65.075 77.201 68.083 C 78.523 71.084 79.812 74.112 81.681 76.609 C 82.664 77.921 86.458 78.625 88.183 79.354 C 89.392 79.865 91.373 80.398 92.518 81.087 C 94.705 82.407 96.824 83.977 98.876 85.423 C 99.901 86.145 103.053 87.73 103.21 89.036 Z M 38.623 33.985 C 37.563 33.965 36.814 34.101 36.021 34.273 L 36.021 34.418 L 36.166 34.418 C 36.672 35.456 37.564 36.125 38.188 37.019 C 38.67 38.031 39.152 39.042 39.634 40.053 L 39.777 39.91 C 40.673 39.278 41.082 38.271 41.077 36.73 C 40.719 36.353 40.666 35.881 40.355 35.431 C 39.943 34.83 39.144 34.489 38.623 33.985 Z" style=""/>
</svg>