<?xml version="1.0" encoding="utf-8"?>
<svg version="1.0" viewBox="0 0 128 128" xmlns="http://www.w3.org/2000/svg">
  <rect width="128" height="128" rx="15%" fill="#eeeeee"/>
  <path d="M 31.605 101.979 L 31.605 89.242 L 36.201 89.242 C 38.749 89.242 42.791 89.076 45.228 88.854 L 49.547 88.522 L 43.787 86.972 C 40.576 86.141 36.533 84.923 34.817 84.258 L 31.605 83.096 L 31.605 57.123 L 36.755 57.123 C 39.524 57.123 43.566 56.957 45.671 56.736 L 49.547 56.404 L 42.736 54.576 C 38.97 53.636 34.983 52.362 33.765 51.863 L 31.605 50.867 L 31.605 25.726 L 33.322 25.339 C 34.263 25.173 36.589 25.007 38.472 25.007 C 47.775 25.007 69.87 21.961 80.723 19.192 C 88.31 17.198 93.57 15.205 95.398 13.544 C 96.339 12.713 96.395 13.211 96.395 25.449 L 96.395 38.241 L 95.066 39.238 L 93.736 40.29 L 96.395 42.616 L 96.395 70.359 L 95.066 71.356 L 93.736 72.408 L 96.395 74.734 L 96.395 102.477 L 94.954 103.584 C 93.404 104.803 87.423 106.852 80.613 108.568 C 69.981 111.226 44.009 114.715 35.149 114.715 L 31.605 114.715 Z" fill="#390d09" style=""/>
  <g fill="#de3423" style="" transform="matrix(0.818381, 0, 0, 0.818381, 11.145481, 11.599282)">
    <path d="M25 110.572V95.077l11.842-.474c12.315-.473 21.45-1.488 34.847-3.789 15.225-2.639 30.246-7.375 31.803-10.082.406-.677.676 4.534.676 14.616v15.698l-1.76 1.353c-1.894 1.489-9.202 3.993-17.524 6.09C71.892 121.737 40.157 126 29.33 126H25zM25 71.327V55.83l11.842-.406c13.127-.541 23.344-1.691 36.877-4.195 15.157-2.842 28.96-7.443 29.976-9.947.203-.473.406 6.09.406 14.616.067 13.533-.068 15.698-1.083 16.78-2.368 2.64-20.638 7.376-39.449 10.286-11.435 1.76-30.381 3.79-35.66 3.79H25zM25 32.352V17.195l2.098-.406c1.15-.203 3.992-.406 6.293-.406 11.367 0 38.366-3.722 51.628-7.105 9.27-2.436 15.698-4.872 17.931-6.902 1.15-1.015 1.218-.406 1.218 14.48 0 14.548-.067 15.63-1.285 16.714-1.827 1.691-14.345 5.548-24.09 7.51-15.765 3.113-41.951 6.429-50.883 6.429H25z"/>
  </g>
</svg>