<?xml version="1.0" encoding="utf-8"?>
<svg viewBox="0 0 128 128" xmlns="http://www.w3.org/2000/svg">
  <rect width="128" height="128" rx="15%" fill="#007acc"/>
  <path fill="#fff" d="M 26.459 48.64 L 116.992 48.64 L 116.992 115.556 L 26.459 115.556 Z" style=""/>
  <path data-name="original" fill="#007acc" d="M 7.23 63.999 L 7.23 120.77 L 120.771 120.77 L 120.771 7.229 L 7.23 7.229 Z M 98.726 59.458 C 101.445 60.09 103.916 61.511 105.828 63.545 C 106.881 64.641 107.796 65.862 108.554 67.178 C 108.554 67.324 103.648 70.64 100.66 72.492 C 100.551 72.565 100.115 72.093 99.634 71.375 C 98.525 69.461 96.512 68.252 94.302 68.169 C 90.859 67.933 88.643 69.74 88.661 72.71 C 88.633 73.45 88.803 74.183 89.152 74.837 C 89.906 76.407 91.314 77.343 95.727 79.251 C 103.857 82.748 107.336 85.054 109.498 88.334 C 111.914 91.967 112.45 97.835 110.815 102.176 C 108.998 106.9 104.547 110.106 98.252 111.169 C 95.378 111.497 92.473 111.468 89.606 111.078 C 85.211 110.354 81.163 108.244 78.052 105.055 C 77.007 103.902 74.973 100.896 75.099 100.678 C 75.432 100.432 75.781 100.21 76.145 100.015 L 80.35 97.69 L 83.611 95.799 L 84.292 96.809 C 85.441 98.453 86.905 99.854 88.598 100.932 C 92.23 102.839 97.19 102.576 99.642 100.369 C 101.341 98.699 101.606 96.055 100.27 94.083 C 99.36 92.82 97.544 91.758 92.466 89.542 C 86.608 87.017 84.083 85.453 81.776 82.966 C 80.336 81.324 79.273 79.385 78.661 77.289 C 78.204 74.892 78.136 72.438 78.461 70.022 C 79.668 64.362 83.911 60.412 90.105 59.239 C 92.974 58.884 95.88 58.965 98.726 59.476 Z M 72.075 64.218 L 72.075 68.868 L 57.333 68.868 L 57.333 110.86 L 46.878 110.86 L 46.878 68.859 L 32.1 68.859 L 32.1 64.317 C 32.054 62.752 32.091 61.184 32.21 59.621 C 32.282 59.54 41.291 59.54 52.192 59.54 L 72.021 59.54 Z" style=""/>
</svg>