<?xml version="1.0" encoding="utf-8"?>
<svg viewBox="0 0 128 128" xmlns="http://www.w3.org/2000/svg">
  <rect width="128" height="128" rx="15%" fill="#333"/>
  <circle cx="64" cy="64" r="50" fill="white"/>
  <path fill="#DD4814" d="M 64 12.25 C 35.418 12.25 12.249 35.419 12.249 64 C 12.249 92.579 35.418 115.75 64 115.75 C 92.581 115.75 115.751 92.579 115.751 64 C 115.751 35.419 92.582 12.25 64 12.25 Z M 75.611 30.071 C 78.269 25.466 84.915 25.466 87.574 30.07 C 88.809 32.207 88.809 34.84 87.575 36.978 C 85.669 40.283 81.443 41.414 78.14 39.505 C 74.837 37.598 73.705 33.375 75.611 30.071 Z M 64 33.985 C 66.778 33.985 69.466 34.371 72.019 35.076 C 72.481 37.955 74.217 40.472 76.744 41.927 C 79.265 43.383 82.306 43.63 85.028 42.599 C 90.137 47.623 93.462 54.455 93.946 62.066 L 84.101 62.21 C 83.193 51.901 74.543 43.818 64 43.818 C 61.063 43.815 58.161 44.455 55.499 45.694 L 50.697 37.092 C 54.833 35.044 59.385 33.981 64 33.985 Z M 28.811 70.91 C 24.995 70.91 21.901 67.816 21.901 64 C 21.9 60.183 24.994 57.088 28.811 57.089 C 34.131 57.148 37.392 62.944 34.681 67.521 C 33.45 69.598 31.225 70.883 28.811 70.91 Z M 34.937 71.525 C 37.202 69.683 38.516 66.919 38.514 64 C 38.514 60.963 37.118 58.253 34.937 56.474 C 36.805 49.243 41.304 43.068 47.348 39.026 L 52.4 47.488 C 47.211 51.14 43.819 57.172 43.819 64 C 43.819 70.828 47.21 76.86 52.4 80.51 L 47.348 88.975 C 41.301 84.934 36.803 78.757 34.937 71.525 Z M 85.049 100.455 C 81.745 102.364 77.519 101.232 75.613 97.926 C 73.704 94.624 74.837 90.401 78.142 88.492 C 81.445 86.585 85.67 87.718 87.578 91.021 C 89.486 94.324 88.353 98.549 85.049 100.455 Z M 85.028 85.401 C 82.307 84.367 79.264 84.614 76.744 86.073 C 74.218 87.528 72.482 90.044 72.02 92.923 C 69.408 93.648 66.71 94.016 64 94.016 C 59.386 94.021 54.833 92.957 50.698 90.908 L 55.499 82.305 C 58.161 83.544 61.063 84.185 64 84.182 C 74.543 84.182 83.193 76.101 84.099 65.79 L 93.946 65.934 C 93.462 73.545 90.137 80.377 85.028 85.401 Z" style=""/>
</svg>