<?xml version="1.0" encoding="utf-8"?>
<svg viewBox="0 0 128 128" xmlns="http://www.w3.org/2000/svg" xmlns:xlink="http://www.w3.org/1999/xlink">
  <rect width="128" height="128" rx="15%" fill="#eeeeee"/>
  <path fill="#019833" d="M 64.475 14.513 L 14.956 64.124 L 64.339 113.612 L 113.993 64.001 L 64.475 14.513 Z" style=""/>
  <path d="M 64.339 113.736 L 14.821 64.125 L 14.956 64.002 L 64.61 14.267 L 114.129 63.878 L 113.993 64.001 L 64.339 113.736 Z M 15.092 64.125 L 64.339 113.49 L 113.858 64.002 L 64.61 14.637 L 15.092 64.125 Z" style=""/>
  <path fill="#66FE98" d="M 64.339 14.636 L 64.339 10.316 L 10.344 64.371 L 14.956 64.371 L 64.339 14.636 Z" style=""/>
  <path d="M 14.956 64.371 L 10.072 64.371 L 10.207 64.248 L 64.338 10.071 L 64.338 14.637 L 14.955 64.372 Z M 10.615 64.248 L 14.82 64.248 L 64.203 14.637 L 64.203 10.565 L 10.615 64.249 Z" style=""/>
  <path fill="#45FE02" d="M 64.203 14.636 L 64.203 10.316 L 118.198 64.371 L 113.585 64.371 L 64.203 14.636 Z" style=""/>
  <path d="M 118.334 64.371 L 113.45 64.371 L 64.067 14.76 L 64.067 10.193 L 64.203 10.316 L 118.334 64.371 Z M 113.586 64.248 L 117.791 64.248 L 64.339 10.564 L 64.339 14.636 L 113.586 64.247 Z" style=""/>
  <path fill="#017D17" d="M 64.339 113.86 L 64.339 118.179 L 10.344 64.248 L 14.956 64.248 L 64.339 113.86 Z" style=""/>
  <path d="M 64.339 118.426 L 64.204 118.303 L 10.073 64.125 L 14.957 64.125 L 64.34 113.861 L 64.34 118.427 Z M 10.615 64.248 L 64.203 117.933 L 64.203 113.861 L 14.82 64.249 L 10.615 64.249 Z" style=""/>
  <path d="M 37.07 107.936 L 26.624 107.936 L 22.554 105.59 L 22.554 28.21 L 19.298 28.21 L 16.584 25.495 L 16.584 16.981 L 19.434 13.895 L 55.928 13.895 L 59.184 17.227 L 59.184 25.249 L 56.47 28.582 L 53.757 28.582 L 53.757 54.251 L 79.67 28.582 L 78.177 28.582 L 75.193 25.373 L 75.193 16.858 L 78.177 14.143 L 114.943 14.143 L 117.791 17.105 L 117.791 25.128 L 37.07 107.937 Z M 27.709 103.986 L 35.443 103.986 L 113.994 23.398 L 113.994 18.586 L 113.451 17.968 L 79.671 17.968 L 79.128 18.462 L 79.128 23.646 L 79.941 24.51 L 89.302 24.51 L 49.823 63.508 L 49.823 24.51 L 54.708 24.51 L 55.386 23.77 L 55.386 18.833 L 54.436 17.846 L 21.197 17.846 L 20.519 18.586 L 20.519 23.893 L 20.926 24.387 L 26.624 24.387 L 26.624 103.247 L 27.709 103.987 Z" style=""/>
  <path fill="#005D04" d="M 64.203 113.86 L 64.203 118.179 L 118.198 64.124 L 113.585 64.124 L 64.203 113.86 Z" style=""/>
  <path d="M 64.067 118.426 L 64.067 113.86 L 113.45 64.124 L 118.334 64.124 L 118.199 64.247 L 64.068 118.425 Z M 64.338 113.86 L 64.338 117.932 L 117.927 64.247 L 113.721 64.247 L 64.338 113.859 Z" style=""/>
  <path d="M 63.932 118.919 L 9.123 64.124 L 64.068 9.082 L 118.877 63.877 L 63.932 118.919 Z M 10.886 64.124 L 63.932 117.315 L 117.249 64.001 L 64.204 10.81 L 10.886 64.124 Z" style=""/>
  <path fill="#FEFEFE" d="M 55.52 19.079 L 57.42 18.093 L 55.384 16.118 L 20.382 16.118 L 18.618 17.846 L 18.618 24.634 L 20.654 26.608 L 21.604 24.634 L 20.382 23.4 L 20.382 18.587 L 21.332 17.723 L 54.842 17.723 L 55.52 19.08 Z" style=""/>
  <path d="M 20.654 26.731 L 18.484 24.633 L 18.484 17.844 L 20.382 15.993 L 55.52 15.993 L 57.691 18.092 L 55.52 19.203 L 54.707 17.845 L 21.197 17.845 L 20.383 18.586 L 20.383 23.275 L 21.605 24.51 L 20.654 26.731 Z M 18.755 24.51 L 20.654 26.361 L 21.469 24.633 L 20.247 23.398 L 20.247 18.586 L 21.197 17.721 L 54.707 17.721 L 55.52 19.079 L 57.284 18.092 L 55.385 16.24 L 20.382 16.24 L 18.619 17.968 L 18.619 24.51 Z" style=""/>
  <path d="M 34.628 104.604 L 27.98 104.604 L 26.894 103.493 L 26.894 24.633 L 21.196 24.633 L 19.976 23.521 L 19.976 18.709 L 21.061 17.598 L 54.3 17.598 L 55.52 18.585 L 55.52 23.274 L 54.165 24.632 L 47.924 24.632 L 47.924 67.084 L 85.638 28.827 L 85.638 24.632 L 79.941 24.632 L 78.856 23.521 L 78.856 18.831 L 80.211 17.474 L 112.907 17.474 L 114.264 18.831 L 114.264 22.533 L 34.628 104.603 Z M 28.116 104.48 L 34.628 104.48 L 113.993 22.411 L 113.993 18.832 L 112.772 17.598 L 80.347 17.598 L 79.127 18.832 L 79.127 23.274 L 80.212 24.261 L 86.046 24.261 L 86.046 28.828 L 47.924 67.58 L 47.924 24.385 L 54.3 24.385 L 55.52 23.151 L 55.52 18.585 L 54.435 17.72 L 21.196 17.72 L 20.111 18.708 L 20.111 23.274 L 21.196 24.261 L 27.03 24.261 L 27.03 103.245 L 28.115 104.479 Z" style=""/>
  <path fill="#FEFEFE" d="M 26.895 24.386 L 26.895 103.37 L 27.981 104.481 L 27.167 105.962 L 24.861 103.741 L 24.861 26.485 L 26.896 24.387 Z" style=""/>
  <path d="M 27.166 106.332 L 24.725 103.986 L 24.725 26.483 L 27.031 24.262 L 27.031 103.493 L 28.116 104.727 L 27.166 106.332 Z M 24.995 103.863 L 27.166 105.961 L 27.845 104.604 L 26.894 103.493 L 26.894 24.633 L 24.995 26.484 L 24.995 103.864 Z" style=""/>
  <path fill="gray" d="M 21.332 24.386 L 20.79 26.238 L 24.995 26.238 L 27.302 24.386 L 21.331 24.386 Z" style=""/>
  <path d="M 24.995 26.483 L 20.654 26.483 L 21.331 24.385 L 27.707 24.385 L 24.994 26.483 Z M 20.79 26.237 L 24.86 26.237 L 26.895 24.509 L 21.197 24.509 L 20.79 26.237 Z" style=""/>
  <g style="" transform="matrix(0.885329, 0, 0, 0.885329, 7.404986, 8.194789)">
    <path fill="#FEFEFE" d="M81.47 20.797l1.073-2.23-1.532-1.394v-4.739l1.686-1.812h36.471l1.379 1.812 1.992-1.394-1.992-2.091H81.318l-1.992 1.952v7.667l2.145 2.23M49.597 57.459l-3.831 9.2 43.06-43.213v-5.158l-39.229 39.17z"/>
    <path d="M45.919 66.937l-.153-.139 3.831-9.34 39.382-39.31v5.436l-43.06 43.352zm3.831-9.34l-3.524 8.782 42.6-42.795v-4.879L49.75 57.597zm31.72-36.801l-.153-.139-1.992-1.952v-7.806l1.992-2.091h39.382l2.145 2.37-2.145 1.533-1.379-1.952H82.696l-1.686 1.673v4.739l1.532 1.394-1.073 2.23zm-1.992-2.091l1.992 1.812.919-1.952-1.532-1.394v-4.879l1.839-1.812h36.624l1.379 1.812 1.839-1.255-1.992-1.952H81.317l-1.839 1.952v7.667z"/>
  </g>
  <g style="" transform="matrix(0.885329, 0, 0, 0.885329, 7.404986, 8.194789)">
    <path fill="gray" d="M54.194 12.015l1.839-1.255v7.527l-2.145 2.23h-4.291v37.08l-3.831 9.2v-48.51h7.049l1.379-1.115v-5.158z"/>
    <path d="M45.919 66.798h-.153v-48.51h7.202l1.226-.976v-5.158l2.145-1.394v7.806l-2.299 2.23h-4.137v36.94l-3.984 9.061zm0-48.371V66.24l3.678-8.643V20.378h4.291l2.145-2.091v-7.249l-1.686 1.115v5.158l-1.379 1.115h-7.049z"/>
  </g>
  <g style="" transform="matrix(0.885329, 0, 0, 0.885329, 7.404986, 8.194789)">
    <path fill="#ccc" d="M82.39 10.621l-1.379 1.394v5.158l1.226 1.255h6.436v5.018L45.766 66.798V18.427h7.049l1.532-1.394v-5.158l-1.379-.976h-37.39l-1.226 1.255v5.297l1.226 1.255h6.589v89.074l1.226 1.255h7.355l89.798-92.699v-4.043l-1.379-1.394H82.39z" xlink:href="#vim-original-path3620"/>
    <path d="M30.748 108.895h-7.509l-1.226-1.255V18.566h-6.436l-1.379-1.255v-5.436l1.226-1.255h37.544l1.379 1.115v5.297l-1.532 1.533h-7.049v47.952l42.6-43.213v-4.739H81.93l-1.226-1.255v-5.297l1.532-1.533h36.931l1.532 1.533v4.182l-89.951 92.699zm-7.355-.139h7.355l89.645-92.699v-4.043l-1.379-1.394H82.39l-1.379 1.394v5.018l1.226 1.115h6.589v5.158l-43.06 43.771V18.287h7.202l1.379-1.394v-5.158l-1.226-.976H15.577l-1.226 1.115v5.158l1.226 1.115h6.589v89.214l1.226 1.394z"/>
  </g>
  <g style="" transform="matrix(0.885329, 0, 0, 0.885329, 7.404986, 8.194789)">
    <path fill="gray" d="M120.7 12.154l1.992-1.115v7.109l-90.411 92.559h-9.654l.919-1.812h7.355l89.645-92.699.153-4.043z"/>
    <path d="M32.281 110.847h-9.807l1.073-2.091h7.355l89.491-92.559.153-4.043 2.145-1.255v7.527l-90.411 92.42zm-9.501-.279h9.348l90.411-92.42v-6.97l-1.839.976-.153 4.043-89.645 92.838h-7.355l-.766 1.533z"/>
  </g>
  <g style="" transform="matrix(0.885329, 0, 0, 0.885329, 7.404986, 8.194789)">
    <path fill="gray" d="M88.673 18.427l-1.992 2.091h-5.21l1.226-2.091h5.976z"/>
    <path d="M86.681 20.657h-5.517l1.379-2.37h6.436l-2.299 2.37zm-5.057-.139h5.057l1.839-1.952h-5.67l-1.226 1.952z"/>
  </g>
  <g style="" transform="matrix(0.885329, 0, 0, 0.885329, 7.404986, 8.194789)">
    <path fill="#ccc" d="M67.219 70.561s-.153 0-.153.139l-1.686 1.533-.153.139-1.686 4.879c0 .139 0 .279.153.418l1.379 1.394c.153.139.153.139.306.139h5.363c.153 0 .153 0 .306-.139l1.379-1.394.153-.139 1.532-5.158c0-.139 0-.279-.153-.418l-1.226-1.115c-.153-.139-.153-.139-.306-.139h-5.21v-.139zm-9.961 13.8c-.153 0-.306.139-.306.279l-.613 2.649c0 .279.153.418.306.558h3.371l-7.815 22.303c0 .279 0 .418.306.558H64c.153 0 .306-.139.46-.279l.766-2.37c0-.279 0-.418-.306-.558h-2.758l7.815-22.582c0-.279 0-.418-.306-.558H57.259zm36.318.139c-.153 0-.153 0-.153.139l-2.299 2.649h-3.831l-2.452-2.649c0-.139-.153-.139-.306-.139h-9.194c-.153 0-.306.139-.306.279l-.766 2.509c0 .279 0 .418.306.558h2.605l-7.509 22.164c0 .279 0 .418.306.558h9.807c.153 0 .306-.139.306-.279l.766-2.091c0-.279 0-.418-.306-.558h-1.839l4.75-15.055h8.581l-5.517 17.564c0 .279 0 .418.306.558h9.347c.153 0 .306-.139.306-.279l.766-1.952c.153-.139 0-.418-.153-.558h-1.839l4.904-15.334h8.275l-5.517 17.564c0 .279 0 .418.306.558h10.267c.153 0 .306-.139.306-.279l.766-2.091c0-.279 0-.418-.306-.558h-2.145l6.13-19.934v-.418l-1.839-2.509c-.153-.139-.153-.139-.306-.139h-7.202c-.153 0-.153 0-.306.139l-2.299 2.509h-3.984l-2.299-2.649c-.153-.139-.153-.139-.306-.139h-6.13v-.139z"/>
    <path d="M63.848 111.683h-11.34c-.153 0-.306 0-.46-.139-.766-.279-1.073-.976-.919-1.673l7.355-21.049h-2.145c-.766-.139-1.226-.976-.919-1.673l.613-2.649c.153-.558.46-.836 1.073-.976h12.259c.153 0 .306 0 .46.139.766.279 1.073.976.919 1.673l-7.355 21.328h1.686c.766.279 1.073.976.919 1.673l-.766 2.37c-.306.558-.766.976-1.379.976zM59.864 86.87h1.379l-7.968 22.861h10.267l.46-1.255h-3.218l7.968-23.14H58.025l-.46 1.533h2.299zm53.48 24.534H102.77c-.766-.279-1.073-.976-.919-1.673l5.21-16.309h-6.283l-4.291 13.382h.306c.153 0 .306 0 .46.139.766.279 1.073 1.115.766 1.812l-.766 1.952c-.153.558-.766.836-1.226.836h-9.654c-.766-.279-1.073-.976-.919-1.673l5.21-16.449h-6.743l-4.137 13.103h.306c.153 0 .306 0 .46.139.766.279 1.073.976.919 1.673l-.766 2.23c-.153.558-.766.836-1.226.976h-9.654c-.153 0-.306 0-.46-.139-.766-.279-1.073-.976-.919-1.673l7.049-20.91H74.42c-.153 0-.306 0-.46-.139-.766-.279-1.073-.976-.919-1.673l.766-2.509c.153-.558.766-.976 1.226-.976h9.041c.306 0 .766.139.919.418l2.299 2.37h2.912l2.145-2.37c.153-.279.46-.418.766-.418h6.129c.306 0 .766.139.919.418l2.145 2.23h3.218l1.992-2.23c.306-.279.613-.418.919-.418h7.202c.46 0 .766.139 1.073.558l1.839 2.509c.306.279.306.836.153 1.255l-5.67 18.679h.766c.153 0 .306 0 .46.139.766.279 1.073.976.766 1.673l-.766 2.23c.153.418-.306.836-.919.836zM77.026 86.87h1.379l-7.662 22.582h8.428l.306-1.115h-2.145l5.363-17.006h10.573l-5.67 18.122h8.122l.306-.836h-2.145l5.517-17.146h10.267l-5.67 18.122h9.041l.46-1.115h-2.452l6.436-20.91-1.532-2.091h-6.743l-2.452 2.649h-4.904l-2.452-2.788h-5.363l-2.452 2.788h-4.597l-2.605-2.788h-8.428l-.46 1.394h1.532zm-6.589-6.83h-5.363c-.306 0-.766-.139-.919-.418l-1.379-1.394c-.306-.418-.46-.976-.306-1.394l1.686-4.879c0-.279.153-.418.306-.558l1.686-1.533c.153-.139.306-.279.613-.279h5.21c.306 0 .613.139.919.418l1.226 1.115c.306.279.46.836.306 1.394L72.89 77.67c0 .279-.153.418-.306.558l-1.379 1.394c0 .279-.46.418-.766.418zm-5.976-2.788l.919.976h4.904l1.073-1.115 1.379-4.739-.766-.697h-4.597l-1.532 1.255-1.379 4.321z"/>
  </g>
  <g style="" transform="matrix(0.885329, 0, 0, 0.885329, 7.404986, 8.194789)">
    <path fill="#ccc" d="M67.219 70.98l-1.686 1.533-1.686 4.879 1.379 1.394h5.363l1.379-1.394 1.532-5.158-1.226-1.115h-5.057zm-9.807 13.8l-.613 2.649h3.678l-7.968 22.861h11.34l.766-2.37H61.55l7.968-23.14H57.412zm36.164 0l-2.452 2.788h-4.137l-2.605-2.788h-9.041l-.766 2.509h2.912l-7.662 22.582h9.654l.766-2.091h-2.299l5.057-15.752h9.501l-5.67 17.982h9.194l.766-1.952h-2.299l5.057-16.17h9.041l-5.67 18.122h10.114l.766-2.091h-2.605l6.283-20.352-1.839-2.509h-7.202l-2.452 2.649h-4.444l-2.452-2.788h-5.517z"/>
    <path d="M64.001 110.429H52.355l7.968-22.861h-3.678l.766-2.927H69.67l-8.122 23.14h3.065L64 110.43zm-11.34-.279h11.186l.613-2.23h-3.065l7.815-23H57.564l-.613 2.37h3.678l-7.968 22.861zm60.836 0h-10.42l5.67-18.122h-8.888l-5.057 15.891h2.299l-.919 2.23h-9.501l5.67-17.982h-9.194l-4.904 15.612h2.299l-.766 2.37h-9.807l7.662-22.582h-2.912l.919-2.649h9.194l2.605 2.788h3.984l2.452-2.788h5.976l2.452 2.788h4.291l2.452-2.649h7.355l1.992 2.649-6.283 20.213h2.605l-1.226 2.23zm-10.114-.279h9.961l.766-1.952h-2.605l6.283-20.491-1.839-2.509h-7.202l-2.452 2.649h-4.444l-2.452-2.788h-5.67l-2.452 2.788h-4.291l-2.605-2.788h-8.888l-.766 2.23h2.912l-7.662 22.582h9.348l.613-1.952h-2.299l5.057-16.031h9.807l-5.67 17.982h9.041l.766-1.812h-2.145l5.21-16.309h9.348l-5.67 18.4zM70.437 78.786H64.92l-1.379-1.394 1.839-5.018 1.839-1.533h5.057l1.226 1.255-1.532 5.158-1.532 1.533zm-5.363-.139h5.21l1.379-1.394 1.532-5.018-1.073-1.115h-4.904l-1.686 1.394-1.686 4.739 1.226 1.394z"/>
  </g>
</svg>