<?xml version="1.0" encoding="utf-8"?>
<svg viewBox="0 0 128 128" xmlns="http://www.w3.org/2000/svg">
  <rect width="128" height="128" rx="15%" fill="#eeeeee"/>
  <path d="M 13.418 48.529 C 13.418 48.529 10.909 46.713 13.924 44.291 L 20.943 37.996 C 20.943 37.996 22.954 35.875 25.078 37.724 L 89.88 86.903 L 89.88 110.486 C 89.88 110.486 89.848 114.189 85.108 113.782 Z M 13.418 48.529" fill="#2489ca" style=""/>
  <path d="M 30.123 63.728 L 13.418 78.95 C 13.418 78.95 11.702 80.229 13.418 82.519 L 21.173 89.587 C 21.173 89.587 23.015 91.572 25.739 89.315 L 43.444 75.855 Z M 30.123 63.728" fill="#1070b3" style=""/>
  <path d="M 59.447 63.854 L 90.078 40.408 L 89.88 16.952 C 89.88 16.952 88.572 11.833 84.208 14.499 L 43.444 51.686 Z M 59.447 63.854" fill="#0877b9" style=""/>
  <path d="M 85.107 113.811 C 86.885 115.637 89.042 115.037 89.042 115.037 L 112.913 103.248 C 115.969 101.16 115.541 98.569 115.541 98.569 L 115.541 28.156 C 115.541 25.06 112.381 23.991 112.381 23.991 L 91.69 13.994 C 87.17 11.193 84.208 14.499 84.208 14.499 C 84.208 14.499 88.015 11.75 89.88 16.953 L 89.88 110.056 C 89.88 110.696 89.744 111.324 89.472 111.891 C 88.928 112.995 87.743 114.021 84.91 113.591 Z M 85.107 113.811" fill="#3c99d4" style=""/>
</svg>