<?xml version="1.0" encoding="utf-8"?>
<svg viewBox="0 0 128 128" xmlns="http://www.w3.org/2000/svg">
  <rect width="128" height="128" rx="15%" fill="#333"/>
  <path d="M 14.667 21.549 L 53.096 21.671 L 64.017 40.533 L 75.141 21.671 L 113.334 21.55 L 64.129 106.45 Z M 112.548 22.04 L 93.77 22.056 L 64.112 72.972 L 34.471 22.056 L 15.393 22.041 L 64.118 105.207 Z M 93.162 22.034 L 75.629 22.164 L 64.026 41.162 L 52.605 22.163 L 35.034 22.033 L 64.118 71.734 Z M 34.706 21.903 L 52.437 21.91 M 34.706 21.902 L 52.437 21.91" fill="none" style=""/>
  <path d="M 34.706 21.903 L 52.437 21.91 L 64.028 41.149 L 75.577 21.912 L 93.292 21.907 L 64.116 72.516 Z" fill="#35495e" style=""/>
  <path d="M 15.368 22.039 L 34.691 21.906 L 64.098 72.519 L 93.277 21.909 L 112.633 21.929 L 64.096 105.226 Z" fill="#41b883" style=""/>
</svg>