<?xml version="1.0" encoding="utf-8"?>
<svg viewBox="0 0 128 128" xmlns="http://www.w3.org/2000/svg">
  <rect width="128" height="128" rx="15%" fill="#eeeeee"/>
  <path fill-rule="evenodd" clip-rule="evenodd" fill="#494949" d="M 64.077 114.712 C 91.972 114.67 114.553 91.978 114.553 63.988 C 114.553 36.453 92.076 13.775 65.222 13.296 C 37.021 12.793 13.454 35.677 13.447 63.427 C 13.439 91.977 35.919 114.753 64.077 114.712 Z M 63.994 15.751 C 90.776 15.742 112.115 37.502 112.107 64.811 C 112.098 90.593 90.193 112.161 64.014 112.167 C 37.343 112.173 15.894 90.548 15.895 63.654 C 15.897 37.454 37.679 15.76 63.994 15.751 Z M 43.781 41.197 C 44.219 42.657 42.993 43.165 41.69 43.266 C 40.319 43.372 38.949 43.475 37.357 43.597 C 42.611 59.251 47.786 74.672 53.085 90.453 C 53.462 89.836 53.618 89.661 53.686 89.458 C 56.595 80.764 59.52 72.076 62.354 63.358 C 62.613 62.563 62.485 61.51 62.201 60.693 C 60.701 56.363 58.904 52.128 57.589 47.746 C 56.69 44.746 55.497 42.805 51.951 43.152 C 51.347 43.212 50.61 41.912 49.933 41.241 C 50.751 40.752 51.563 39.854 52.389 39.842 C 59.609 39.731 66.831 39.733 74.052 39.848 C 74.881 39.862 75.693 40.784 76.511 41.285 C 75.795 41.939 75.177 42.92 74.339 43.174 C 72.996 43.579 71.505 43.502 69.897 43.646 L 85.645 90.491 C 88.03 82.568 90.25 75.292 92.408 67.997 C 94.334 61.485 93.186 55.404 89.704 49.669 C 88.658 47.944 87.372 46.271 86.778 44.39 C 86.105 42.251 85.545 39.815 85.902 37.669 C 86.508 34.031 89.299 32.225 93.075 31.88 C 72.41 12.7 39.935 19.566 27.969 40.405 C 32.575 40.192 36.973 39.913 41.375 39.853 C 42.206 39.842 43.586 40.546 43.781 41.197 Z M 52.015 104.655 C 51.919 104.936 51.913 105.248 51.838 105.715 C 60.744 108.184 69.478 108.006 78.418 104.994 L 64.761 67.589 C 60.391 80.294 56.199 92.472 52.015 104.655 Z M 45.133 102.964 L 24.558 46.523 C 15.276 64.654 22.337 92.317 45.133 102.964 Z M 107.335 66.697 C 107.988 58.123 105.03 46.253 102.476 44.621 C 102.191 47.774 102.39 51.283 101.485 54.48 C 99.355 62.012 96.751 69.413 94.242 76.835 C 91.516 84.902 88.682 92.932 85.895 100.979 C 98.991 93.215 106.188 81.757 107.335 66.697 Z" style=""/>
</svg>